<svg xmlns="http://www.w3.org/2000/svg" width="1000" height="680" viewBox="0 0 1000.0 680.0" role="img" aria-label="V2G: grid charging, V2G discharge, dual price, driving demand, and battery level over two days">
<rect width="100%" height="100%" fill="#ffffff"/>
<line x1="70.0" y1="140.0" x2="972.0" y2="140.0" stroke="#e9ecef" stroke-width="1"/>
<text x="62.0" y="144.0" text-anchor="end" font-family="DejaVu Sans, sans-serif" font-size="11" fill="#2f3540">0</text>
<line x1="70.0" y1="111.57859915108537" x2="972.0" y2="111.57859915108537" stroke="#e9ecef" stroke-width="1"/>
<text x="62.0" y="115.57859915108537" text-anchor="end" font-family="DejaVu Sans, sans-serif" font-size="11" fill="#2f3540">200</text>
<line x1="70.0" y1="83.15719830217074" x2="972.0" y2="83.15719830217074" stroke="#e9ecef" stroke-width="1"/>
<text x="62.0" y="87.15719830217074" text-anchor="end" font-family="DejaVu Sans, sans-serif" font-size="11" fill="#2f3540">400</text>
<line x1="70.0" y1="54.735797453256126" x2="972.0" y2="54.735797453256126" stroke="#e9ecef" stroke-width="1"/>
<text x="62.0" y="58.735797453256126" text-anchor="end" font-family="DejaVu Sans, sans-serif" font-size="11" fill="#2f3540">600</text>
<line x1="70.0" y1="26.314396604341482" x2="972.0" y2="26.314396604341482" stroke="#e9ecef" stroke-width="1"/>
<text x="62.0" y="30.314396604341482" text-anchor="end" font-family="DejaVu Sans, sans-serif" font-size="11" fill="#2f3540">800</text>
<line x1="70.0" y1="18.0" x2="70.0" y2="140.0" stroke="#2f3540" stroke-width="1"/>
<line x1="70.0" y1="140.0" x2="972.0" y2="140.0" stroke="#2f3540" stroke-width="1"/>
<text x="16" y="79.0" text-anchor="middle" font-family="DejaVu Sans, sans-serif" font-size="12" fill="#2f3540" transform="rotate(-90 16 79.0)">Power (MW)</text>
<polyline fill="none" stroke="#2a9d8f" stroke-width="1.8" points="70.00,140.00 89.19,140.00 108.38,140.00 127.57,140.00 146.77,140.00 165.96,140.00 185.15,140.00 204.34,140.00 223.53,140.00 242.72,120.84 261.91,89.44 281.11,70.61 300.30,65.04 319.49,55.12 338.68,61.35 357.87,69.27 377.06,103.11 396.26,140.00 415.45,140.00 434.64,140.00 453.83,140.00 473.02,140.00 492.21,140.00 511.40,140.00 530.60,140.00 549.79,140.00 568.98,140.00 588.17,140.00 607.36,140.00 626.55,140.00 645.74,140.00 664.94,140.00 684.13,140.00 703.32,125.53 722.51,93.61 741.70,62.82 760.89,46.94 780.09,55.80 799.28,64.79 818.47,92.01 837.66,121.17 856.85,140.00 876.04,140.00 895.23,140.00 914.43,140.00 933.62,140.00 952.81,140.00 972.00,140.00"/>
<polyline fill="none" stroke="#7b68a6" stroke-width="1.8" points="70.00,58.13 89.19,63.63 108.38,62.98 127.57,140.00 146.77,86.61 165.96,61.82 185.15,140.00 204.34,140.00 223.53,140.00 242.72,140.00 261.91,140.00 281.11,140.00 300.30,140.00 319.49,140.00 338.68,140.00 357.87,140.00 377.06,140.00 396.26,140.00 415.45,93.64 434.64,59.18 453.83,140.00 473.02,42.34 492.21,140.00 511.40,52.18 530.60,109.85 549.79,140.00 568.98,140.00 588.17,52.99 607.36,140.00 626.55,52.33 645.74,140.00 664.94,140.00 684.13,140.00 703.32,140.00 722.51,140.00 741.70,140.00 760.89,140.00 780.09,140.00 799.28,140.00 818.47,140.00 837.66,140.00 856.85,140.00 876.04,83.53 895.23,47.55 914.43,140.00 933.62,31.07 952.81,140.00 972.00,116.16"/>
<line x1="70.0" y1="18.0" x2="70.0" y2="140.0" stroke="#e9ecef" stroke-width="1"/>
<line x1="530.5957446808511" y1="18.0" x2="530.5957446808511" y2="140.0" stroke="#e9ecef" stroke-width="1"/>
<line x1="972.0" y1="18.0" x2="972.0" y2="140.0" stroke="#e9ecef" stroke-width="1"/>
<line x1="70.0" y1="249.21605716687682" x2="972.0" y2="249.21605716687682" stroke="#e9ecef" stroke-width="1"/>
<text x="62.0" y="253.21605716687682" text-anchor="end" font-family="DejaVu Sans, sans-serif" font-size="11" fill="#2f3540">55</text>
<line x1="70.0" y1="220.31736023539298" x2="972.0" y2="220.31736023539298" stroke="#e9ecef" stroke-width="1"/>
<text x="62.0" y="224.31736023539298" text-anchor="end" font-family="DejaVu Sans, sans-serif" font-size="11" fill="#2f3540">60</text>
<line x1="70.0" y1="191.41866330390917" x2="972.0" y2="191.41866330390917" stroke="#e9ecef" stroke-width="1"/>
<text x="62.0" y="195.41866330390917" text-anchor="end" font-family="DejaVu Sans, sans-serif" font-size="11" fill="#2f3540">65</text>
<line x1="70.0" y1="162.51996637242536" x2="972.0" y2="162.51996637242536" stroke="#e9ecef" stroke-width="1"/>
<text x="62.0" y="166.51996637242536" text-anchor="end" font-family="DejaVu Sans, sans-serif" font-size="11" fill="#2f3540">70</text>
<line x1="70.0" y1="160.0" x2="70.0" y2="270.0" stroke="#2f3540" stroke-width="1"/>
<line x1="70.0" y1="270.0" x2="972.0" y2="270.0" stroke="#2f3540" stroke-width="1"/>
<text x="16" y="215.0" text-anchor="middle" font-family="DejaVu Sans, sans-serif" font-size="12" fill="#2f3540" transform="rotate(-90 16 215.0)">USD/MWh</text>
<polyline fill="none" stroke="#b5651d" stroke-width="1.8" points="70.00,172.69 89.19,172.69 108.38,172.69 127.57,172.69 146.77,172.69 165.96,172.69 185.15,172.69 204.34,172.69 223.53,172.69 242.72,257.31 261.91,257.31 281.11,257.31 300.30,257.31 319.49,257.31 338.68,257.31 357.87,257.31 377.06,257.31 396.26,172.69 415.45,172.69 434.64,172.69 453.83,172.69 473.02,172.69 492.21,172.69 511.40,172.69 530.60,172.69 549.79,172.69 568.98,172.69 588.17,172.69 607.36,172.69 626.55,172.69 645.74,172.69 664.94,172.69 684.13,172.69 703.32,257.31 722.51,257.31 741.70,257.31 760.89,257.31 780.09,257.31 799.28,257.31 818.47,257.31 837.66,257.31 856.85,172.69 876.04,172.69 895.23,172.69 914.43,172.69 933.62,172.69 952.81,172.69 972.00,172.69"/>
<line x1="70.0" y1="160.0" x2="70.0" y2="270.0" stroke="#e9ecef" stroke-width="1"/>
<line x1="530.5957446808511" y1="160.0" x2="530.5957446808511" y2="270.0" stroke="#e9ecef" stroke-width="1"/>
<line x1="972.0" y1="160.0" x2="972.0" y2="270.0" stroke="#e9ecef" stroke-width="1"/>
<line x1="70.0" y1="420.0" x2="972.0" y2="420.0" stroke="#e9ecef" stroke-width="1"/>
<text x="62.0" y="424.0" text-anchor="end" font-family="DejaVu Sans, sans-serif" font-size="11" fill="#2f3540">0</text>
<line x1="70.0" y1="386.2523036988968" x2="972.0" y2="386.2523036988968" stroke="#e9ecef" stroke-width="1"/>
<text x="62.0" y="390.2523036988968" text-anchor="end" font-family="DejaVu Sans, sans-serif" font-size="11" fill="#2f3540">5</text>
<line x1="70.0" y1="352.5046073977936" x2="972.0" y2="352.5046073977936" stroke="#e9ecef" stroke-width="1"/>
<text x="62.0" y="356.5046073977936" text-anchor="end" font-family="DejaVu Sans, sans-serif" font-size="11" fill="#2f3540">10</text>
<line x1="70.0" y1="318.7569110966905" x2="972.0" y2="318.7569110966905" stroke="#e9ecef" stroke-width="1"/>
<text x="62.0" y="322.7569110966905" text-anchor="end" font-family="DejaVu Sans, sans-serif" font-size="11" fill="#2f3540">15</text>
<line x1="70.0" y1="290.0" x2="70.0" y2="420.0" stroke="#2f3540" stroke-width="1"/>
<line x1="70.0" y1="420.0" x2="972.0" y2="420.0" stroke="#2f3540" stroke-width="1"/>
<text x="16" y="355.0" text-anchor="middle" font-family="DejaVu Sans, sans-serif" font-size="12" fill="#2f3540" transform="rotate(-90 16 355.0)">Power (MW)</text>
<polyline fill="none" stroke="#264653" stroke-width="1.8" stroke-dasharray="5 4" points="70.00,410.21 89.19,411.56 108.38,411.56 127.57,411.56 146.77,411.56 165.96,410.21 185.15,403.47 204.34,382.88 223.53,350.49 242.72,332.94 261.91,350.49 281.11,382.88 300.30,403.47 319.49,409.88 338.68,410.21 357.87,405.15 377.06,389.63 396.26,359.26 415.45,323.49 434.64,306.96 453.83,323.49 473.02,359.26 492.21,389.63 511.40,405.15 530.60,410.21 549.79,411.56 568.98,411.56 588.17,411.56 607.36,411.56 626.55,410.21 645.74,403.47 664.94,382.88 684.13,350.49 703.32,332.94 722.51,350.49 741.70,382.88 760.89,403.47 780.09,409.88 799.28,410.21 818.47,405.15 837.66,389.63 856.85,359.26 876.04,323.49 895.23,306.96 914.43,323.49 933.62,359.26 952.81,389.63 972.00,405.15"/>
<line x1="70.0" y1="290.0" x2="70.0" y2="420.0" stroke="#e9ecef" stroke-width="1"/>
<line x1="530.5957446808511" y1="290.0" x2="530.5957446808511" y2="420.0" stroke="#e9ecef" stroke-width="1"/>
<line x1="972.0" y1="290.0" x2="972.0" y2="420.0" stroke="#e9ecef" stroke-width="1"/>
<line x1="70.0" y1="620.0" x2="972.0" y2="620.0" stroke="#e9ecef" stroke-width="1"/>
<text x="62.0" y="624.0" text-anchor="end" font-family="DejaVu Sans, sans-serif" font-size="11" fill="#2f3540">0</text>
<line x1="70.0" y1="570.5961622303953" x2="972.0" y2="570.5961622303953" stroke="#e9ecef" stroke-width="1"/>
<text x="62.0" y="574.5961622303953" text-anchor="end" font-family="DejaVu Sans, sans-serif" font-size="11" fill="#2f3540">1000</text>
<line x1="70.0" y1="521.1923244607906" x2="972.0" y2="521.1923244607906" stroke="#e9ecef" stroke-width="1"/>
<text x="62.0" y="525.1923244607906" text-anchor="end" font-family="DejaVu Sans, sans-serif" font-size="11" fill="#2f3540">2000</text>
<line x1="70.0" y1="471.7884866911859" x2="972.0" y2="471.7884866911859" stroke="#e9ecef" stroke-width="1"/>
<text x="62.0" y="475.7884866911859" text-anchor="end" font-family="DejaVu Sans, sans-serif" font-size="11" fill="#2f3540">3000</text>
<line x1="70.0" y1="440.0" x2="70.0" y2="620.0" stroke="#2f3540" stroke-width="1"/>
<line x1="70.0" y1="620.0" x2="972.0" y2="620.0" stroke="#2f3540" stroke-width="1"/>
<text x="16" y="530.0" text-anchor="middle" font-family="DejaVu Sans, sans-serif" font-size="12" fill="#2f3540" transform="rotate(-90 16 530.0)">Level (MWh)</text>
<polyline fill="none" stroke="#c44536" stroke-width="2.0" points="70.00,503.93 89.19,529.62 108.38,553.58 127.57,577.74 146.77,577.80 165.96,594.57 185.15,619.10 204.34,619.22 223.53,619.49 242.72,620.00 261.91,613.98 281.11,596.91 300.30,573.06 319.49,547.12 338.68,517.69 357.87,490.42 377.06,465.94 396.26,453.33 415.45,453.78 434.64,468.99 453.83,495.10 473.02,495.81 492.21,526.81 511.40,527.03 530.60,554.62 549.79,564.12 568.98,564.19 588.17,564.25 607.36,591.53 626.55,591.60 645.74,619.10 664.94,619.22 684.13,619.49 703.32,620.00 722.51,615.61 741.70,599.99 760.89,573.43 780.09,541.20 799.28,512.00 818.47,485.92 837.66,469.35 856.85,463.02 876.04,463.47 895.23,481.84 914.43,511.60 933.62,512.30 952.81,546.83 972.00,547.05"/>
<line x1="70.0" y1="440.0" x2="70.0" y2="620.0" stroke="#e9ecef" stroke-width="1"/>
<line x1="530.5957446808511" y1="440.0" x2="530.5957446808511" y2="620.0" stroke="#e9ecef" stroke-width="1"/>
<line x1="972.0" y1="440.0" x2="972.0" y2="620.0" stroke="#e9ecef" stroke-width="1"/>
<line x1="70.0" y1="620.0" x2="70.0" y2="626.0" stroke="#2f3540" stroke-width="1"/>
<text x="70.0" y="642.0" text-anchor="middle" font-family="DejaVu Sans, sans-serif" font-size="11" fill="#2f3540">0 h</text>
<line x1="530.5957446808511" y1="620.0" x2="530.5957446808511" y2="626.0" stroke="#2f3540" stroke-width="1"/>
<text x="530.5957446808511" y="642.0" text-anchor="middle" font-family="DejaVu Sans, sans-serif" font-size="11" fill="#2f3540">24 h</text>
<line x1="972.0" y1="620.0" x2="972.0" y2="626.0" stroke="#2f3540" stroke-width="1"/>
<text x="972.0" y="642.0" text-anchor="middle" font-family="DejaVu Sans, sans-serif" font-size="11" fill="#2f3540">48 h</text>
<rect x="794.0" y="24.0" width="168" height="118.0" fill="#ffffff" fill-opacity="0.94" stroke="#adb5bd" stroke-width="1"/>
<line x1="806.0" y1="42.0" x2="828.0" y2="42.0" stroke="#2a9d8f" stroke-width="1.8"/>
<text x="834.0" y="46.0" font-family="DejaVu Sans, sans-serif" font-size="11" fill="#2f3540">Grid charging</text>
<line x1="806.0" y1="62.0" x2="828.0" y2="62.0" stroke="#7b68a6" stroke-width="1.8"/>
<text x="834.0" y="66.0" font-family="DejaVu Sans, sans-serif" font-size="11" fill="#2f3540">V2G discharge</text>
<line x1="806.0" y1="82.0" x2="828.0" y2="82.0" stroke="#b5651d" stroke-width="1.8"/>
<text x="834.0" y="86.0" font-family="DejaVu Sans, sans-serif" font-size="11" fill="#2f3540">Dual price</text>
<line x1="806.0" y1="102.0" x2="828.0" y2="102.0" stroke="#264653" stroke-width="1.8" stroke-dasharray="5 4"/>
<text x="834.0" y="106.0" font-family="DejaVu Sans, sans-serif" font-size="11" fill="#2f3540">Driving</text>
<line x1="806.0" y1="122.0" x2="828.0" y2="122.0" stroke="#c44536" stroke-width="1.8"/>
<text x="834.0" y="126.0" font-family="DejaVu Sans, sans-serif" font-size="11" fill="#2f3540">Level</text>
</svg>
